<svg xmlns="http://www.w3.org/2000/svg" viewBox="0 0 41 38" preserveAspectRatio="xMidYMin meet"><g clip-path="url(#clip0_4196_445)"><path d="M5.802 12.31c.325-.902.816-1.705 1.425-2.437.847-1.02 1.861-1.84 2.98-2.534 1.556-.964 3.239-1.617 5.007-2.055 2.018-.5 4.069-.681 6.14-.58 2.648.129 5.196.696 7.6 1.848.738.354 1.426.79 2.047 1.328.497.429.895.936 1.165 1.54.347.776.401 1.589.253 2.41-.32 1.783-1.236 3.194-2.68 4.263-.683.506-1.426.9-2.202 1.236-.438.189-.884.36-1.324.546q-.233.098-.453.223a.9.9 0 0 0-.225.187c-.091.104-.076.263.045.332.131.074.278.133.425.166.498.115 1.006.093 1.51.055a19.3 19.3 0 0 0 4.09-.75c1.07-.321 2.078-.775 2.981-1.447.044-.033.096-.057.145-.082.008-.004.023.006.063.017-.03.077-.053.153-.087.224a5.8 5.8 0 0 1-1.389 1.796c-.678.604-1.442 1.076-2.254 1.472-1.257.614-2.58 1.029-3.94 1.329-1.552.342-3.124.532-4.71.625a36 36 0 0 1-4.714-.029c-2.148-.153-4.264-.49-6.315-1.175a14 14 0 0 1-2.688-1.202 8.5 8.5 0 0 1-1.648-1.242c-.773-.758-1.325-1.647-1.533-2.725-.22-1.138-.106-2.253.286-3.34M35.203 27.196c-.17.879-.577 1.648-1.148 2.33-.531.634-1.17 1.137-1.875 1.558-1.046.625-2.176 1.043-3.346 1.357-1.29.345-2.604.56-3.932.698a45 45 0 0 1-5.296.227 34 34 0 0 1-4.447-.337c-1.544-.228-3.06-.578-4.507-1.181-.952-.396-1.849-.89-2.646-1.551-1.043-.866-1.815-1.921-2.2-3.242a5.2 5.2 0 0 1-.224-1.547c.001-.081.016-.162.025-.257.132 0 .242-.01.35.002.503.062 1.008.067 1.513.03 1.311-.096 2.498.248 3.58.993.65.448 1.247.962 1.818 1.508.448.428.885.869 1.324 1.306.513.51 1.08.944 1.729 1.266.729.363 1.496.567 2.312.552.755-.014 1.468-.21 2.145-.542a7.4 7.4 0 0 0 1.506-1.005c.161-.135.322-.272.492-.397.84-.618 1.78-.798 2.795-.639.57.09 1.117.27 1.67.43.524.153 1.05.31 1.585.42a3.74 3.74 0 0 0 1.71-.033c.584-.15 1.011-.49 1.24-1.05.132-.326.222-.669.326-1.006.088-.283.157-.572.254-.852.255-.737.76-1.206 1.518-1.388l1.857-.445c.02.088.048.153.049.218.012.864-.012 1.727-.177 2.577"/><path d="M20.267 1.869q.558 0 1.119.025c3.438.156 6.713.952 9.749 2.628 1.638.904 3.106 2.03 4.32 3.473 1.003 1.19 1.764 2.514 2.185 4.025.39 1.399.468 2.812.168 4.238a.63.63 0 0 0 .105.512 7.3 7.3 0 0 1 .902 1.954c.291 1.015.284 2.037.071 3.063-.134.65-.456 1.18-.993 1.573-.056.04-.108.088-.17.14 0 .125-.006.252.002.378.069 1.118.04 2.233-.12 3.343a12.7 12.7 0 0 1-.855 3.141c-.73 1.726-1.92 3.038-3.536 3.966-1.081.621-2.24 1.038-3.443 1.338-1.214.302-2.448.485-3.691.613a53 53 0 0 1-5.357.252q-1.065 0-2.13-.03c-1.965-.054-3.92-.25-5.848-.659-1.363-.288-2.691-.685-3.959-1.272-.974-.451-1.884-1.006-2.695-1.717-1.542-1.353-2.48-3.039-2.787-5.085-.14-.94-.18-1.885-.179-2.833v-.681c-.036-.043-.068-.09-.108-.129-.722-.69-1.025-1.57-1.127-2.537a9 9 0 0 1-.004-1.61c.023-.315.115-.61.23-.9.209-.53.5-1.013.832-1.47.108-.15.147-.282.088-.467-.71-2.235-.497-4.41.446-6.529.624-1.4 1.537-2.594 2.636-3.646 1.504-1.44 3.245-2.508 5.148-3.32 1.767-.754 3.604-1.242 5.5-1.522a24 24 0 0 1 3.5-.255m0-1.869a26 26 0 0 0-6.785.904c-1.01.277-1.999.62-2.938 1.021a21 21 0 0 0-2.991 1.566 17.6 17.6 0 0 0-2.71 2.12A15 15 0 0 0 3.13 7.548a12.5 12.5 0 0 0-1.34 2.299c-1.07 2.403-1.307 4.822-.709 7.201-.285.45-.512.891-.688 1.338a4.9 4.9 0 0 0-.356 1.457c-.07.987-.028 1.58.01 1.941.074.709.226 1.331.466 1.903q.294.702.758 1.281c0 1.185.063 2.164.2 3.08.37 2.467 1.514 4.558 3.403 6.215.897.787 1.923 1.442 3.138 2.005 1.292.598 2.715 1.057 4.352 1.403 1.932.409 3.953.637 6.178.698.767.02 1.48.031 2.18.031 2.008 0 3.822-.086 5.544-.262 1.512-.155 2.766-.364 3.948-.658 1.492-.372 2.774-.871 3.917-1.528 1.988-1.143 3.442-2.776 4.323-4.856.47-1.112.792-2.29.983-3.604.148-1.02.202-2.061.163-3.168q.286-.304.507-.658c.28-.447.48-.95.592-1.496a9 9 0 0 0 .193-1.948 7.8 7.8 0 0 0-.298-2.018 9 9 0 0 0-.883-2.052c.244-1.52.147-3.077-.288-4.638a12 12 0 0 0-1.038-2.534 13.7 13.7 0 0 0-1.518-2.195 16 16 0 0 0-2.267-2.196 18.6 18.6 0 0 0-2.576-1.706A22.5 22.5 0 0 0 26.879.83c-1.7-.447-3.52-.717-5.41-.803C21.069.01 20.664 0 20.267 0"/></g><defs><clipPath id="clip0_4196_445"><path d="M0 0H41V38H0z"/></clipPath></defs></svg>