<svg xmlns="http://www.w3.org/2000/svg" viewBox="0 0 38 35" preserveAspectRatio="xMidYMin meet"><path d="M36.972 16.76a7.2 7.2 0 0 0-.903-1.943.62.62 0 0 1-.104-.51c.299-1.417.221-2.823-.169-4.214-.42-1.502-1.183-2.818-2.185-4.002-1.215-1.434-2.683-2.554-4.322-3.453C26.253.972 22.977.18 19.538.025a24.3 24.3 0 0 0-4.62.229c-1.898.278-3.735.764-5.502 1.513-1.904.808-3.645 1.87-5.15 3.301-1.1 1.047-2.013 2.234-2.636 3.626-.944 2.106-1.157 4.27-.447 6.491.06.185.02.316-.088.464a6.7 6.7 0 0 0-.832 1.462 3 3 0 0 0-.23.895 9 9 0 0 0 .005 1.601c.101.963.405 1.837 1.127 2.523.04.038.072.085.108.128v.678c-.002.942.038 1.88.179 2.816.306 2.035 1.245 3.711 2.787 5.056.811.707 1.722 1.259 2.696 1.707 1.268.584 2.597.98 3.96 1.266 1.929.405 3.884.601 5.85.655 2.499.068 4.997.032 7.488-.221 1.244-.127 2.478-.31 3.692-.61 1.203-.298 2.363-.712 3.444-1.33 1.615-.923 2.806-2.228 3.537-3.943.426-1.001.697-2.048.854-3.123.162-1.104.19-2.213.12-3.325-.007-.125 0-.25 0-.376.061-.05.113-.098.17-.14.536-.39.858-.917.993-1.562.213-1.02.22-2.037-.071-3.047M3.95 10.38c.325-.896.816-1.695 1.425-2.423.847-1.013 1.862-1.83 2.981-2.52 1.556-.957 3.24-1.607 5.008-2.042a21.3 21.3 0 0 1 6.142-.577c2.648.128 5.197.692 7.601 1.837a9.2 9.2 0 0 1 2.049 1.32c.496.427.894.932 1.164 1.532.347.771.402 1.58.254 2.397-.321 1.772-1.236 3.175-2.682 4.239-.682.502-1.426.895-2.202 1.228-.438.188-.884.359-1.324.543a4 4 0 0 0-.453.222.9.9 0 0 0-.225.185c-.091.105-.076.262.045.33.131.075.278.133.425.166.498.114 1.006.093 1.51.055a19.4 19.4 0 0 0 4.092-.747c1.07-.318 2.078-.77 2.981-1.438.044-.033.095-.056.145-.082.008-.004.023.006.063.018-.03.076-.053.152-.088.222a5.75 5.75 0 0 1-1.388 1.786c-.679.6-1.442 1.07-2.255 1.464-1.257.61-2.581 1.023-3.942 1.32-1.552.341-3.124.53-4.711.623a36 36 0 0 1-4.714-.03c-2.149-.152-4.266-.486-6.317-1.168a14 14 0 0 1-2.688-1.194 8.5 8.5 0 0 1-1.649-1.236c-.774-.754-1.325-1.637-1.534-2.71-.22-1.131-.105-2.24.287-3.32m29.408 14.802c-.17.874-.577 1.639-1.148 2.317-.531.63-1.17 1.13-1.876 1.55-1.046.621-2.176 1.036-3.346 1.348-1.291.344-2.605.557-3.933.695a45 45 0 0 1-5.298.225 34 34 0 0 1-4.448-.334c-1.545-.228-3.06-.576-4.509-1.175-.951-.394-1.849-.884-2.646-1.543-1.044-.86-1.815-1.91-2.2-3.223a5.1 5.1 0 0 1-.225-1.538c.002-.08.016-.161.026-.255.131 0 .242-.012.349.002.504.061 1.01.066 1.514.03 1.312-.096 2.499.246 3.58.986.651.446 1.249.957 1.82 1.5.447.426.884.864 1.324 1.299a6.7 6.7 0 0 0 1.73 1.259c.728.36 1.495.563 2.311.548a5.1 5.1 0 0 0 2.146-.539 7.4 7.4 0 0 0 1.506-.999c.162-.135.323-.27.493-.395.84-.614 1.78-.793 2.796-.635.57.09 1.117.269 1.67.428.524.151 1.05.307 1.585.417a3.8 3.8 0 0 0 1.712-.033c.582-.15 1.01-.487 1.238-1.044.133-.324.223-.665.327-1 .088-.281.157-.569.254-.847.255-.733.76-1.199 1.518-1.38l1.858-.443c.02.088.048.152.049.217.012.859-.012 1.717-.177 2.562"/></svg>