<svg xmlns="http://www.w3.org/2000/svg" viewBox="0 0 140 38.18">
  <path class="fill-white" d="M40.9031 20.107C40.8923 19.4225 40.7922 18.7476 40.6056 18.101C40.4047 17.405 40.1083 16.7203 39.7225 16.0604C39.966 14.5498 39.8694 13.0007 39.4341 11.4484C39.191 10.5815 38.8415 9.73372 38.3954 8.92856C37.981 8.18074 37.4703 7.44667 36.8774 6.74673C36.21 5.95888 35.4471 5.22409 34.61 4.5628C33.8327 3.94882 32.9656 3.37799 32.0328 2.86616C30.4252 1.98416 28.6934 1.29738 26.8855 0.824904C25.1852 0.38055 23.3645 0.112134 21.474 0.0271097C21.0739 0.00912103 20.6693 0 20.2717 0C19.0085 0 17.7405 0.0919704 16.5029 0.273356C15.466 0.42531 14.4506 0.635749 13.485 0.898759C12.4749 1.17389 11.4863 1.51553 10.5465 1.91419C9.47448 2.36896 8.46788 2.89274 7.55463 3.471C6.57086 4.09391 5.65869 4.80307 4.84345 5.57878C4.19698 6.1939 3.62124 6.84193 3.13222 7.5049C2.59785 8.22934 2.14691 8.99847 1.79192 9.79092C0.721729 12.18 0.484043 14.5854 1.08257 16.9511C0.797622 17.3982 0.57049 17.8373 0.394079 18.281C0.262114 18.6129 0.0816592 19.1242 0.038099 19.7299C-0.0325073 20.7113 0.00966272 21.3017 0.0474935 21.6605C0.121786 22.3647 0.274373 22.9837 0.513996 23.5527C0.709427 24.0168 0.963374 24.4431 1.2723 24.8263C1.2715 26.0045 1.33507 26.9782 1.47209 27.8878C1.84172 30.3417 2.98703 32.4211 4.87619 34.0682C5.77343 34.8505 6.80006 35.5025 8.01473 36.0616C9.30713 36.6565 10.7311 37.1129 12.3678 37.457C14.3009 37.8634 16.3224 38.0903 18.5478 38.1508C19.3147 38.1717 20.0281 38.1818 20.7287 38.1818C22.7371 38.1818 24.5509 38.0965 26.2737 37.9211C27.7858 37.7671 29.0407 37.5592 30.2228 37.2668C31.7154 36.8975 32.9968 36.4005 34.1403 35.7473C36.1286 34.6117 37.5834 32.9871 38.4642 30.9189C38.9349 29.8137 39.2566 28.6418 39.4476 27.3363C39.5961 26.3217 39.6502 25.2862 39.6115 24.1861C39.8016 23.9844 39.971 23.7659 40.1182 23.532C40.3983 23.0869 40.5976 22.5861 40.7107 22.0436C40.8482 21.3841 40.9129 20.7326 40.9031 20.107Z"/> <path class="fill-black" d="M38.79 18.6383C38.5895 17.9435 38.28 17.2994 37.8876 16.6955C37.7819 16.5328 37.7409 16.3852 37.7829 16.1861C38.0823 14.7687 38.0048 13.3632 37.6147 11.9721C37.1934 10.4701 36.4318 9.1535 35.4294 7.97025C34.2147 6.53625 32.7467 5.41611 31.1078 4.51691C28.0709 2.85071 24.7955 2.05885 21.3559 1.90415C19.8109 1.83467 18.2699 1.90791 16.7361 2.1327C14.8387 2.41079 13.0009 2.89663 11.234 3.64616C9.33051 4.45365 7.58906 5.51581 6.08469 6.94724C4.98484 7.99375 4.07166 9.18067 3.44798 10.5729C2.50434 12.6794 2.29088 14.8424 3.00157 17.0641C3.06068 17.2489 3.02198 17.3797 2.91357 17.5283C2.5816 17.9833 2.29033 18.4634 2.08108 18.9898C1.96633 19.2784 1.87442 19.5725 1.85197 19.8845C1.81357 20.4184 1.79969 20.9531 1.85591 21.486C1.95744 22.4484 2.26107 23.3231 2.98299 24.009C3.02327 24.0473 3.05529 24.0943 3.09107 24.1371C3.09107 24.3649 3.09141 24.5896 3.09101 24.8144C3.08933 25.7573 3.12903 26.6957 3.26997 27.6313C3.57639 29.6656 4.51487 31.3421 6.05773 32.6873C6.86865 33.3943 7.77899 33.9456 8.75328 34.3941C10.0216 34.9779 11.3502 35.373 12.7133 35.6596C14.6423 36.0651 16.5969 36.261 18.563 36.3145C21.0621 36.3824 23.5601 36.3472 26.0513 36.0936C27.2954 35.9669 28.5292 35.7843 29.7436 35.4838C30.9469 35.1861 32.1061 34.7716 33.1875 34.154C34.8029 33.2313 35.9936 31.9262 36.7244 30.2104C37.1507 29.2094 37.4211 28.1634 37.5786 27.0876C37.7401 25.9838 37.7682 24.8751 37.699 23.7628C37.6912 23.6378 37.698 23.512 37.698 23.3872C37.7598 23.3361 37.8114 23.2887 37.8676 23.2478C38.4044 22.8576 38.7267 22.3296 38.8612 21.6845C39.074 20.664 39.0813 19.6478 38.79 18.6383ZM5.76912 12.2599C6.09398 11.3641 6.58498 10.5654 7.19409 9.83703C8.04157 8.8236 9.05601 8.00725 10.1756 7.31785C11.7318 6.35969 13.4149 5.71024 15.1836 5.27482C17.202 4.77791 19.2531 4.59699 21.3257 4.69753C23.9736 4.82597 26.5222 5.38982 28.9268 6.53538C29.6649 6.887 30.3534 7.32112 30.9749 7.85557C31.4712 8.2824 31.8692 8.78655 32.1396 9.38712C32.4867 10.1582 32.5411 10.9666 32.3931 11.7841C32.0724 13.5559 31.1569 14.9593 29.7117 16.0225C29.029 16.5248 28.2855 16.9178 27.5095 17.2507C27.0711 17.4388 26.6254 17.6098 26.1853 17.7938C26.0302 17.8586 25.878 17.9325 25.732 18.0156C25.6486 18.063 25.571 18.129 25.5075 18.2013C25.416 18.3055 25.4312 18.4634 25.552 18.5315C25.6834 18.6056 25.8299 18.6639 25.977 18.6974C26.4757 18.8109 26.9837 18.7896 27.4874 18.752C28.877 18.6482 30.2425 18.4024 31.5791 18.0049C32.6497 17.6866 33.6571 17.2349 34.5604 16.567C34.6046 16.5343 34.6558 16.5106 34.7051 16.4854C34.713 16.4813 34.728 16.4912 34.7685 16.5029C34.7389 16.5788 34.7153 16.6547 34.6808 16.7254C34.3427 17.4177 33.867 18.0033 33.2924 18.5112C32.6135 19.1114 31.8499 19.5804 31.0377 19.9747C29.7803 20.5849 28.4561 20.9975 27.0957 21.2958C25.5435 21.6361 23.9711 21.8245 22.3843 21.9176C20.8111 22.0099 19.2399 22.0003 17.6699 21.8887C15.5218 21.7361 13.4048 21.4021 11.3534 20.7198C10.4189 20.4089 9.51632 20.0246 8.66502 19.5257C8.06906 19.1764 7.5124 18.7735 7.01641 18.2901C6.24282 17.5363 5.69105 16.6527 5.48284 15.5808C5.26299 14.4489 5.37716 13.3408 5.76912 12.2599ZM35.1778 27.062C35.0072 27.9363 34.6004 28.7008 34.029 29.3788C33.4978 30.009 32.8592 30.5097 32.1537 30.9287C31.1072 31.5501 29.9773 31.9653 28.807 32.2769C27.5161 32.6205 26.2025 32.8343 24.8742 32.9715C23.1122 33.1536 21.3461 33.2243 19.5761 33.1969C18.0873 33.1738 16.6025 33.0795 15.1283 32.8625C13.5836 32.6352 12.0684 32.2873 10.6197 31.6876C9.66802 31.2937 8.77085 30.8038 7.97314 30.1454C6.92982 29.2843 6.15789 28.2351 5.77308 26.9223C5.62599 26.4205 5.53948 25.909 5.54864 25.3842C5.55005 25.3033 5.56448 25.2225 5.57423 25.1286C5.70573 25.1286 5.81598 25.1174 5.92326 25.1305C6.42715 25.1923 6.9327 25.1969 7.4371 25.1602C8.74896 25.0646 9.93623 25.4067 11.0176 26.1473C11.6687 26.5932 12.2661 27.1043 12.8367 27.6469C13.2847 28.0729 13.7215 28.5106 14.161 28.9455C14.674 29.4532 15.2421 29.8841 15.8905 30.2046C16.6193 30.5649 17.3869 30.7678 18.2026 30.7531C18.9581 30.7395 19.6711 30.5445 20.3488 30.2139C20.8948 29.9475 21.3897 29.6043 21.8547 29.2153C22.0163 29.0802 22.1777 28.9441 22.3475 28.82C23.1874 28.206 24.1272 28.0264 25.1429 28.1851C25.7133 28.2743 26.2601 28.4535 26.8127 28.6129C27.3378 28.7644 27.8637 28.9202 28.3982 29.0302C28.9656 29.1469 29.5406 29.1438 30.1099 28.9973C30.6929 28.8473 31.1203 28.5101 31.3488 27.9527C31.4814 27.6292 31.5714 27.2879 31.6756 26.9531C31.7632 26.6715 31.8328 26.3839 31.9296 26.1058C32.1847 25.3724 32.6895 24.907 33.4477 24.7256C34.0584 24.5795 34.6694 24.4347 35.3053 24.2834C35.3257 24.3706 35.3531 24.4349 35.3541 24.4996C35.3664 25.3585 35.3428 26.2168 35.1778 27.062Z"/>
<path class="fill-black dark:fill-white" d="M100.155 17.8754C100.16 17.7055 100.168 17.5684 100.168 17.4313C100.169 15.7154 100.168 13.9996 100.169 12.2837C100.169 12.1572 100.164 12.03 100.175 11.9042C100.196 11.6509 100.309 11.5245 100.559 11.4746C100.654 11.4556 100.754 11.4536 100.852 11.4534C101.568 11.4517 102.284 11.4494 103 11.4534C103.558 11.4566 103.686 11.5904 103.693 12.157C103.696 12.3538 103.694 12.5508 103.694 12.7477C103.694 18.486 103.694 24.2243 103.693 29.9627C103.693 30.117 103.698 30.2736 103.676 30.4253C103.635 30.6971 103.499 30.8158 103.226 30.8402C103.129 30.8489 103.03 30.8445 102.932 30.8446C102.314 30.8448 101.696 30.845 101.078 30.8447C100.318 30.8443 100.255 30.782 100.253 30.0375C100.252 29.8693 100.243 29.7011 100.236 29.5329C100.236 29.5249 100.216 29.5177 100.182 29.4926C100.137 29.5241 100.078 29.5554 100.031 29.5992C99.1496 30.4196 98.0999 30.8882 96.9211 31.0759C95.9077 31.2372 94.9044 31.1626 93.9187 30.8861C91.7444 30.2761 90.2836 28.8663 89.4974 26.7781C88.7308 24.7422 88.7321 22.6705 89.4891 20.6282C90.1227 18.9192 91.2638 17.6474 92.94 16.8926C93.7023 16.5494 94.5074 16.3677 95.3416 16.3185C96.0601 16.2761 96.7698 16.3242 97.4731 16.4939C98.32 16.6982 99.0836 17.0632 99.7607 17.6113C99.8587 17.6905 99.9572 17.7692 100.056 17.847C100.066 17.855 100.083 17.8551 100.155 17.8754ZM92.5485 23.8655C92.5449 24.5162 92.7036 25.3505 93.1273 26.1221C93.565 26.9191 94.2042 27.4894 95.065 27.783C95.8983 28.0673 96.7495 28.075 97.5923 27.8253C98.5748 27.5343 99.2798 26.9009 99.738 25.9896C100.201 25.0694 100.313 24.0885 100.225 23.0747C100.164 22.3784 99.9746 21.7217 99.6221 21.1162C99.2196 20.4252 98.6511 19.9258 97.9109 19.6174C97.3251 19.3733 96.7147 19.324 96.0929 19.3603C94.7525 19.4385 93.7521 20.0663 93.1037 21.246C92.6937 21.992 92.5502 22.8024 92.5485 23.8655Z"/> <path class="fill-black dark:fill-white" d="M109.178 29.4551C109.178 29.7561 109.18 29.9523 109.177 30.1484C109.176 30.2465 109.178 30.3464 109.16 30.4422C109.115 30.688 108.982 30.8097 108.736 30.838C108.653 30.8476 108.568 30.8441 108.483 30.8441C107.796 30.8445 107.108 30.8443 106.42 30.8443C106.392 30.8443 106.364 30.8447 106.336 30.844C105.874 30.8324 105.746 30.7021 105.736 30.232C105.734 30.1476 105.736 30.0632 105.736 29.9789C105.736 24.1007 105.736 18.2226 105.736 12.3445C105.736 12.2039 105.73 12.0627 105.741 11.9228C105.761 11.6494 105.881 11.5167 106.15 11.4691C106.246 11.4522 106.346 11.453 106.444 11.4528C107.146 11.4516 107.848 11.4602 108.549 11.4495C109.103 11.441 109.269 11.6202 109.266 12.178C109.257 13.9358 109.262 15.6937 109.263 17.4515C109.264 17.5871 109.274 17.7226 109.279 17.848C109.394 17.887 109.435 17.816 109.484 17.7733C110.561 16.8228 111.833 16.3765 113.253 16.3104C114.102 16.2709 114.935 16.3662 115.747 16.6182C117.581 17.188 118.894 18.374 119.709 20.0975C120.378 21.5137 120.591 23.0204 120.435 24.5791C120.355 25.3663 120.19 26.1349 119.895 26.8695C119.197 28.6045 118.033 29.9058 116.287 30.6181C114.787 31.2302 113.24 31.3306 111.668 30.894C110.885 30.6764 110.188 30.2974 109.566 29.7758C109.462 29.6888 109.357 29.6031 109.178 29.4551ZM109.132 23.6032C109.15 23.8555 109.164 24.1082 109.186 24.3601C109.253 25.1031 109.498 25.7859 109.908 26.4061C110.255 26.9323 110.713 27.3427 111.284 27.6154C112.226 28.0655 113.209 28.1112 114.197 27.8288C115.328 27.5059 116.068 26.736 116.511 25.6624C116.886 24.7531 116.929 23.805 116.822 22.8431C116.755 22.2347 116.561 21.664 116.257 21.1341C115.851 20.4283 115.272 19.9194 114.516 19.6093C113.956 19.3798 113.374 19.3292 112.781 19.357C111.317 19.4256 110.263 20.1253 109.61 21.4367C109.271 22.1185 109.154 22.8491 109.132 23.6032Z"/> <path class="fill-black dark:fill-white" d="M62.1159 24.7686C62.2967 26.6072 63.5731 27.9719 65.3626 28.1543C66.9852 28.3196 68.4432 27.8742 69.7822 26.9769C69.8988 26.8987 70.0091 26.8103 70.1294 26.7385C70.3846 26.5863 70.5832 26.6108 70.7582 26.8437C71.1295 27.3379 71.492 27.839 71.8473 28.3448C71.9947 28.5545 71.9791 28.7273 71.8033 28.9187C71.6614 29.0732 71.5017 29.2133 71.3386 29.3458C70.4173 30.0939 69.3647 30.5675 68.2166 30.8465C67.4906 31.023 66.7548 31.1193 66.0106 31.1513C64.9909 31.1951 63.9879 31.0705 63.0277 30.726C60.8306 29.9378 59.447 28.3784 58.8118 26.1445C58.4733 24.9538 58.373 23.7389 58.5596 22.5112C58.9566 19.8997 60.2888 17.9625 62.7384 16.9019C64.5075 16.136 66.3447 16.0698 68.1639 16.7129C70.3741 17.4942 71.7186 19.0866 72.2788 21.3562C72.4971 22.2404 72.519 23.1364 72.4388 24.0383C72.4289 24.15 72.4044 24.2604 72.3876 24.3715C72.353 24.5992 72.2078 24.7173 71.9929 24.7464C71.8548 24.7651 71.7129 24.7585 71.5726 24.7585C68.5967 24.7591 65.6208 24.7588 62.6449 24.7593C62.4783 24.7594 62.3116 24.7651 62.1159 24.7686ZM69.035 22.0516C68.8606 21.1755 68.4842 20.4442 67.8286 19.8692C67.0605 19.1956 66.1462 19.0227 65.1593 19.1129C64.5873 19.1652 64.0684 19.3651 63.6031 19.694C63.0514 20.0841 62.6618 20.6082 62.3975 21.2291C62.2035 21.6848 62.177 21.7896 62.2107 22.059C62.5634 22.1101 68.5806 22.1121 69.035 22.0516Z"/> <path class="fill-black dark:fill-white" d="M77.343 24.7596C77.3569 24.9123 77.3572 25.0111 77.3762 25.106C77.4623 25.5357 77.6045 25.9464 77.8164 26.3307C78.4108 27.4087 79.3396 27.9983 80.5427 28.1458C82.082 28.3346 83.4903 27.9361 84.7932 27.1216C84.9716 27.0101 85.14 26.8825 85.3177 26.7698C85.6179 26.5793 85.8042 26.5988 86.0098 26.8713C86.365 27.3422 86.7113 27.8203 87.0496 28.3036C87.2325 28.5648 87.2144 28.7574 86.9816 28.979C86.7585 29.1913 86.52 29.3903 86.2725 29.5739C85.3548 30.2549 84.3154 30.6629 83.2073 30.9032C82.0888 31.1457 80.9587 31.2371 79.8191 31.0905C76.4687 30.6597 74.6079 28.444 73.9867 25.949C73.7503 24.9996 73.6558 24.0366 73.7318 23.0631C73.826 21.8575 74.1307 20.7089 74.7696 19.6688C75.7408 18.0877 77.1247 17.0569 78.9147 16.5738C80.2586 16.2112 81.6039 16.1983 82.9465 16.5731C85.0386 17.1573 86.4806 18.4735 87.253 20.5005C87.7116 21.7039 87.8207 22.9587 87.6417 24.2362C87.6358 24.2779 87.633 24.3203 87.6245 24.3615C87.5733 24.6104 87.4551 24.7241 87.1984 24.7521C87.0735 24.7657 86.9461 24.7593 86.8199 24.7593C83.8445 24.7596 80.8691 24.7595 77.8938 24.7595C77.727 24.7596 77.5603 24.7596 77.343 24.7596ZM84.2328 22.0532C84.1912 21.3417 83.6963 20.4236 83.062 19.8699C82.2903 19.1964 81.3771 19.0241 80.3899 19.1139C79.8176 19.166 79.2991 19.3682 78.8329 19.6972C78.3045 20.0702 77.9261 20.5689 77.6614 21.1577C77.4431 21.6434 77.4076 21.7776 77.4384 22.0642C77.7071 22.0979 83.608 22.1257 84.0791 22.093C84.132 22.0893 84.1834 22.0664 84.2328 22.0532Z"/> <path class="fill-black dark:fill-white" d="M131.098 17.791C131.184 17.7123 131.256 17.6467 131.328 17.5819C132.197 16.8003 133.224 16.3981 134.38 16.3183C135.156 16.2647 135.92 16.3385 136.671 16.5526C137.94 16.9143 138.835 17.7032 139.373 18.9024C139.716 19.6675 139.878 20.4805 139.942 21.311C139.983 21.829 139.995 22.3502 139.996 22.87C140.002 25.2464 139.999 27.6228 139.998 29.9992C139.998 30.1396 140.003 30.2815 139.985 30.4201C139.949 30.6929 139.82 30.8106 139.542 30.839C139.459 30.8476 139.374 30.8441 139.29 30.8442C138.574 30.8445 137.858 30.8339 137.143 30.8478C136.616 30.8581 136.433 30.7149 136.439 30.1592C136.445 29.4843 136.44 28.8093 136.44 28.1344C136.44 26.4329 136.442 24.7315 136.438 23.0301C136.437 22.4398 136.447 21.8465 136.324 21.2654C136.267 20.9926 136.183 20.7216 136.079 20.4629C135.878 19.9623 135.499 19.6333 134.985 19.4906C134.292 19.2983 133.596 19.3096 132.919 19.5745C132.375 19.7873 131.973 20.1688 131.683 20.6715C131.361 21.2275 131.175 21.8303 131.109 22.4653C131.062 22.9259 131.032 23.3905 131.03 23.8535C131.022 25.9205 131.027 27.9875 131.026 30.0545C131.026 30.181 131.03 30.3083 131.018 30.4338C130.995 30.662 130.874 30.7917 130.651 30.8306C130.568 30.8449 130.483 30.8436 130.399 30.8437C129.641 30.8446 128.883 30.8328 128.125 30.8482C127.61 30.8587 127.472 30.6193 127.476 30.1885C127.486 28.7825 127.479 27.3763 127.479 25.9702C127.479 23.1016 127.479 20.2331 127.48 17.3646C127.48 17.2242 127.475 17.082 127.494 16.9437C127.525 16.7186 127.657 16.5981 127.882 16.5684C127.952 16.5593 128.022 16.5584 128.093 16.5583C128.865 16.5576 129.637 16.5629 130.409 16.5557C130.816 16.5519 131.052 16.6271 131.027 17.178C131.019 17.3598 131.032 17.5426 131.037 17.7249C131.037 17.7342 131.053 17.7432 131.098 17.791Z"/> <path class="fill-black dark:fill-white" d="M52.1142 14.6054C52.0651 15.0564 52.0711 21.2653 52.1169 21.6216C52.2312 21.7171 52.3768 21.6821 52.5116 21.6825C53.5783 21.6853 54.645 21.6841 55.7117 21.6841C55.8942 21.6841 56.0766 21.6833 56.2591 21.6848C56.3432 21.6855 56.4281 21.6843 56.5112 21.6954C56.7887 21.7324 56.9073 21.8527 56.942 22.1275C56.949 22.183 56.9483 22.2397 56.9483 22.2959C56.9487 22.9286 56.9485 23.5614 56.9485 24.1941C56.9485 24.2223 56.9491 24.2504 56.9477 24.2785C56.9278 24.6665 56.7977 24.7966 56.401 24.8197C56.3031 24.8254 56.2046 24.8219 56.1063 24.8219C54.9414 24.822 53.7765 24.8216 52.6115 24.8224C52.4585 24.8225 52.3054 24.828 52.1713 24.8307C52.0367 24.9706 52.0828 25.1185 52.0824 25.2525C52.0788 26.5039 52.0803 27.7554 52.0803 29.0068C52.0803 29.4145 52.0838 29.8223 52.0791 30.23C52.0736 30.7085 51.9511 30.8391 51.486 30.8425C50.686 30.8483 49.886 30.8444 49.086 30.8433C49.0161 30.8432 48.9447 30.8418 48.8766 30.8281C48.676 30.7878 48.5566 30.6643 48.528 30.4584C48.5127 30.3477 48.5141 30.2341 48.5141 30.1218C48.5135 24.146 48.5135 18.1701 48.514 12.1943C48.514 12.082 48.5141 11.969 48.5252 11.8574C48.5457 11.6505 48.6652 11.5266 48.8666 11.4836C48.9348 11.469 49.0046 11.4601 49.0741 11.454C49.1298 11.4491 49.1863 11.4521 49.2424 11.4521C52.639 11.452 56.0356 11.4515 59.4322 11.4538C59.571 11.4539 59.7124 11.4676 59.848 11.4965C60.0324 11.536 60.1336 11.666 60.1558 11.8524C60.1657 11.9359 60.1664 12.0207 60.1665 12.1049C60.1673 12.7236 60.167 13.3423 60.1668 13.961C60.1668 14.0172 60.1679 14.0737 60.163 14.1296C60.1365 14.4291 60.0198 14.5504 59.7129 14.5811C59.5738 14.5951 59.4326 14.5912 59.2924 14.5912C57.0748 14.5917 54.8572 14.5913 52.6395 14.5921C52.4735 14.5922 52.3074 14.6003 52.1142 14.6054Z"/> <path class="fill-black dark:fill-white" d="M121.883 23.6771C121.883 21.5816 121.883 19.4861 121.884 17.3906C121.884 17.2361 121.882 17.0803 121.901 16.9276C121.929 16.7094 122.04 16.6024 122.252 16.5713C122.335 16.5591 122.42 16.558 122.504 16.5579C123.276 16.557 124.048 16.5575 124.82 16.5576C124.862 16.5576 124.905 16.5568 124.947 16.5598C125.265 16.5829 125.397 16.7087 125.43 17.029C125.44 17.1266 125.435 17.2257 125.435 17.3242C125.436 21.5715 125.436 25.8188 125.434 30.066C125.434 30.2059 125.428 30.3475 125.406 30.485C125.372 30.6905 125.234 30.8009 125.034 30.8315C124.951 30.8441 124.866 30.8433 124.782 30.8434C124.038 30.8443 123.294 30.8461 122.55 30.8432C121.991 30.8411 121.885 30.7374 121.884 30.1746C121.882 28.0088 121.883 25.843 121.883 23.6771Z"/> <path class="fill-black dark:fill-white" d="M125.816 13.3773C125.814 14.5672 124.979 15.2408 124.199 15.4098C123.699 15.5183 123.224 15.4754 122.756 15.3055C121.813 14.9631 121.28 13.9366 121.514 12.9131C121.692 12.1349 122.178 11.6376 122.94 11.407C123.366 11.2782 123.792 11.2636 124.225 11.3675C125.186 11.5978 125.814 12.3875 125.816 13.3773Z"/>
</svg>
