<svg xmlns="http://www.w3.org/2000/svg" viewBox="0 0 16 12">
  <path d="M13 9.929v1.5H3v-1.5zm1.5-1.5V3A1.5 1.5 0 0 0 13 1.5H3a1.5 1.5 0 0 0-1.492 1.347L1.5 3v5.429a1.5 1.5 0 0 0 1.5 1.5v1.5l-.154-.004A3 3 0 0 1 .004 8.583L0 8.429V3a3 3 0 0 1 3-3h10a3 3 0 0 1 3 3v5.429l-.004.154a3 3 0 0 1-2.842 2.842l-.154.004v-1.5a1.5 1.5 0 0 0 1.5-1.5"/><path d="M14.522 2.758a.75.75 0 0 1 .67 1.342L8.335 7.528a.75.75 0 0 1-.67-1.342z"/><path d="M.472 3.093a.75.75 0 0 1 1.006-.335l6.857 3.428a.75.75 0 1 1-.67 1.342L.807 4.1a.75.75 0 0 1-.336-1.006"/>
</svg>
