<svg xmlns="http://www.w3.org/2000/svg" viewBox="0 0 17 17">
  <path d="M3.25 10.5h-1.5V.75a.75.75 0 0 1 1.5 0zM9.25 5.5h-1.5V.75a.75.75 0 0 1 1.5 0zM15.25 9.5h-1.5V.75a.75.75 0 0 1 1.5 0zM1.75 16.25V14h1.5v2.25a.75.75 0 0 1-1.5 0M7.75 16.25v-7.5h1.5v7.5a.75.75 0 0 1-1.5 0M13.75 16.25V13h1.5v3.25a.75.75 0 0 1-1.5 0"/><path d="M3.5 12.5a1 1 0 1 0-1 1V15a2.5 2.5 0 1 1 0-5 2.5 2.5 0 0 1 0 5v-1.5a1 1 0 0 0 1-1M9.5 7a1 1 0 1 0-1 1v1.5a2.5 2.5 0 1 1 0-5 2.5 2.5 0 0 1 0 5V8a1 1 0 0 0 1-1M15.5 11.25a1 1 0 1 0-1 1v1.5a2.5 2.5 0 1 1 0-5 2.5 2.5 0 0 1 0 5v-1.5a1 1 0 0 0 1-1"/>
</svg>
